<?xml version="1.0" encoding="UTF-8"?>
<!DOCTYPE svg PUBLIC "-//W3C//DTD SVG 1.1//EN" "http://www.w3.org/Graphics/SVG/1.1/DTD/svg11.dtd">
<!-- Creator: CorelDRAW 2019 (64-Bit) -->
<svg xmlns="http://www.w3.org/2000/svg" xml:space="preserve" width="184.645mm" height="73.7549mm" version="1.1" style="shape-rendering:geometricPrecision; text-rendering:geometricPrecision; image-rendering:optimizeQuality; fill-rule:evenodd; clip-rule:evenodd"
viewBox="0 0 184.319 73.6248"
 xmlns:xlink="http://www.w3.org/1999/xlink"
 xmlns:xodm="http://www.corel.com/coreldraw/odm/2003">
 <defs>
  <style type="text/css">
   <![CDATA[
    .fil0 {fill:#72B635}
   ]]>
  </style>
 </defs>
 <g id="Layer_x0020_1">
  <metadata id="CorelCorpID_0Corel-Layer"/>
  <path class="fil0" d="M138.5386 45.3464c-0.8193,0.0658 -1.8637,0.1676 -2.3205,0.2266 -0.7832,0.0999 -0.8442,0.0776 -1.0557,-0.3866 -0.1775,-0.3899 -0.1789,-0.5078 -0.0063,-0.5654 0.1199,-0.0404 0.2185,-0.1838 0.2185,-0.3197 0,-0.1352 0.3766,-0.4388 0.8373,-0.6733 1.0624,-0.5412 3.3546,-2.3523 3.4806,-2.7508 0.1191,-0.3747 1.3182,-1.0321 3.2037,-1.755 1.065,-0.4085 1.605,-0.7344 2.0709,-1.2508 0.3471,-0.384 0.6307,-0.7812 0.6307,-0.883 0,-0.1018 0.234,-0.2662 0.5195,-0.3656 0.3816,-0.1335 0.5975,-0.3854 0.8131,-0.949l0.293 -0.767 1.191 0.0999c1.1276,0.0943 1.2797,0.0596 2.8451,-0.6541 0.9092,-0.4139 1.7793,-0.8609 1.932,-0.9924 0.1533,-0.1322 0.4904,-0.2396 0.7492,-0.2396 0.2588,0 0.4712,-0.0733 0.4712,-0.1625 0,-0.0901 0.2773,-0.2546 0.6169,-0.3663 0.3394,-0.1123 0.6167,-0.3152 0.6167,-0.4512 0,-0.1359 0.2974,-0.3985 0.6611,-0.5835 1.2283,-0.6255 2.5915,-0.9273 4.6586,-1.0296l2.0575 -0.1018 -0.1349 0.602c-0.3036,1.3469 -0.5324,1.52 -2.2039,1.6745 -1.2917,0.1191 -2.2181,0.4996 -2.2181,0.9112 0,0.1781 -0.3054,0.4499 -0.7491,0.6677 -2.2448,1.1029 -3.6409,1.9364 -4.2284,2.5253 -0.362,0.3632 -1.458,1.0786 -2.4356,1.5894 -0.9768,0.5108 -2.0443,1.1967 -2.3709,1.5231 -0.3779,0.3779 -0.9018,0.6703 -1.4423,0.8045 -0.5499,0.1365 -1.1357,0.4666 -1.6651,0.9389 -0.4493,0.4009 -1.5586,1.1221 -2.4653,1.6019 -0.9062,0.4804 -1.9699,1.1178 -2.3641,1.4176 -0.6218,0.4722 -0.9128,0.5604 -2.2064,0.6646zm-63.839 28.1954l0 0c0.5457,0.1434 0.6935,0.1242 1.88,-0.2427 0.7021,-0.2165 1.2178,-0.4822 1.2836,-0.6603 0.0602,-0.1644 0.2147,-0.3619 0.3433,-0.4401 0.1278,-0.0769 0.2334,-0.2296 0.2334,-0.3382 0,-0.6702 1.3975,-1.137 1.9001,-0.6343 0.1546,0.1545 0.31,0.1576 0.6078,0.0118 0.2202,-0.1073 0.6858,-0.2824 1.0346,-0.3885 0.8429,-0.2569 2.1065,-1.0725 3.1219,-2.0134 0.5698,-0.5281 1.0458,-0.8036 1.5316,-0.8861 0.3881,-0.0665 1.6076,-0.4029 2.7099,-0.748 1.6415,-0.5138 2.0984,-0.7342 2.5203,-1.2147 0.829,-0.9452 2.3689,-1.343 6.4038,-1.6564 3.1298,-0.2428 4.1975,-0.4606 4.8181,-0.9833 0.2731,-0.2295 0.867,-0.5108 1.3207,-0.6248 0.4531,-0.1143 0.8235,-0.2689 0.8235,-0.3434 0,-0.0744 0.298,-0.188 0.6612,-0.2519 0.3636,-0.064 1.0723,-0.2321 1.5739,-0.3736 0.8459,-0.2384 0.9458,-0.3252 1.3511,-1.1812 0.2408,-0.5082 1.0021,-1.5535 1.6917,-2.3224 0.6897,-0.769 1.2954,-1.5641 1.3462,-1.7676 0.0516,-0.2054 0.4406,-0.5542 0.8747,-0.7844 0.4299,-0.2279 1.1451,-0.8032 1.5888,-1.2785 0.7131,-0.7616 1.0669,-1.3848 1.8004,-3.1673 0.1453,-0.353 0.466,-0.5629 1.3406,-0.8763 0.8018,-0.2881 1.1779,-0.5208 1.2431,-0.7702 0.0517,-0.1961 0.3798,-0.5405 0.7293,-0.7651 0.4283,-0.2751 0.7709,-0.7145 1.0524,-1.3512 0.2397,-0.543 0.5649,-0.9906 0.7648,-1.0538 0.5691,-0.1807 1.5633,-1.4183 1.899,-2.3647 0.1726,-0.486 0.465,-0.9508 0.6488,-1.0328 0.1843,-0.082 0.6652,-0.62 1.0687,-1.1959 0.7018,-1.0005 1.5503,-1.6976 1.7837,-1.4642 0.1699,0.17 -0.2297,1.461 -0.5972,1.9289 -0.2121,0.2707 -0.3753,0.8739 -0.4579,1.6975 -0.0918,0.9162 -0.1981,1.2779 -0.3742,1.2779 -0.1955,0 -0.2471,0.3705 -0.2471,1.7627 0,0.9694 0.069,1.7627 0.1533,1.7627 0.0843,0 0.2508,0.4952 0.3697,1.0997 0.2614,1.3277 0.504,1.8197 1.2401,2.5137 0.3085,0.2911 0.7102,0.8193 0.8919,1.1735 0.7646,1.486 1.8738,1.7838 4.5947,1.2359 1.6851,-0.3396 1.8456,-0.4103 2.6049,-1.1464 0.5852,-0.5673 1.0862,-0.8634 1.8047,-1.0676 1.0248,-0.291 1.6733,-0.8564 2.2884,-1.9966 0.2383,-0.4413 0.4332,-0.553 1.1458,-0.6566 0.4724,-0.069 1.0346,-0.2383 1.2493,-0.376 0.2148,-0.1378 0.5344,-0.2508 0.7099,-0.2508 0.1757,0 0.4763,-0.1068 0.6673,-0.2377 0.1912,-0.1311 0.5823,-0.2955 0.8689,-0.3656 0.599,-0.1452 1.1594,-0.6753 1.4685,-1.389 0.1249,-0.2861 0.4369,-0.571 0.7429,-0.6778 0.2904,-0.1018 0.5284,-0.2892 0.5284,-0.4171 0,-0.2358 1.5383,-0.6647 1.8009,-0.5027 0.0758,0.0472 0.1378,0.2296 0.1378,0.406 0,0.1762 0.1193,0.4195 0.2644,0.5398 0.4152,0.3452 0.3129,0.6541 -0.2868,0.8634l-0.5511 0.1918 0.0783 2.4504c0.0918,2.8878 0.1867,3.1049 1.6788,3.838 0.9062,0.4451 1.2462,0.5077 3.0492,0.5623 1.9078,0.0577 2.081,0.0335 2.8911,-0.3972 0.4734,-0.2514 0.9508,-0.4574 1.0604,-0.4574 0.1101,0 0.2895,-0.2384 0.3993,-0.5288 0.1099,-0.2911 0.3251,-0.5288 0.4791,-0.5288 0.1539,0 0.2799,-0.1192 0.2799,-0.2651 0,-0.2177 0.3222,-0.2637 1.8426,-0.2637 2.8521,0 4.6919,-0.5338 5.2146,-1.5125 0.2368,-0.4419 0.4148,-0.4959 2.5312,-0.7752 0.8864,-0.1173 1.7841,-0.3754 2.4673,-0.7111 0.6816,-0.3334 1.4968,-0.5693 2.2229,-0.642 0.6292,-0.0632 1.1933,-0.1879 1.252,-0.2773 0.0588,-0.0899 1.2473,-0.3556 2.6438,-0.5915 2.755,-0.4655 4.1739,-0.8279 5.0019,-1.2772 0.2923,-0.1589 1.1248,-0.4488 1.8493,-0.6443 1.6286,-0.4395 1.8225,-0.7156 1.6636,-2.3827 -0.0938,-0.9923 -0.1876,-1.2283 -0.7103,-1.7627 -0.3335,-0.3419 -0.6655,-0.6857 -0.9944,-1.0315 -0.5053,-0.5307 -2.1625,-1.3717 -3.019,-1.5324 -0.386,-0.0727 -0.826,-0.0453 -1.0486,0.0653 -0.2096,0.1042 -1.2139,0.5119 -2.2324,0.9055 -1.6507,0.6398 -1.8969,0.7919 -2.2799,1.415 -0.561,0.9117 -1.322,1.2506 -3.073,1.3679 -0.7881,0.0527 -1.4807,0.1676 -1.5379,0.2551 -0.0573,0.0881 -0.5958,0.2742 -1.1965,0.4145 -0.6006,0.1404 -1.306,0.4122 -1.5697,0.6039 -0.2844,0.2074 -0.9089,0.3936 -1.5364,0.4588 -0.6085,0.0632 -1.2648,0.2555 -1.5477,0.4536 -0.6483,0.4555 -2.2942,0.4066 -2.3848,-0.0708 -0.0349,-0.1825 0.0491,-0.3086 0.2048,-0.3086 0.1447,0 0.3544,-0.2748 0.4656,-0.6111 0.1096,-0.3358 0.6022,-0.9901 1.0932,-1.4543 0.4894,-0.4635 1.0376,-1.0798 1.2187,-1.3698 0.1811,-0.2898 0.5846,-0.6131 0.8977,-0.7186 0.4719,-0.1589 0.6228,-0.3513 0.896,-1.1432 0.1811,-0.5239 0.3749,-1.4896 0.429,-2.1462 0.0604,-0.7129 0.1811,-1.1934 0.3002,-1.1934 0.1128,0 0.2892,-0.5605 0.4004,-1.2748 0.2081,-1.3195 0.3671,-1.5504 1.6794,-2.4548 0.2336,-0.1606 0.9947,-1.2455 1.6906,-2.4099 0.7197,-1.2009 1.5666,-2.3746 1.9607,-2.7109 0.6783,-0.5809 0.6943,-0.6225 0.8151,-2.0959 0.116,-1.4419 -0.1128,-3.6649 -0.4307,-4.1801 -0.0763,-0.1223 -0.8755,-0.3704 -1.7763,-0.5511 -0.9025,-0.1812 -1.689,-0.4064 -1.7494,-0.5014 -0.0683,-0.1075 -0.8341,-0.0187 -2.0416,0.2364 -1.0645,0.224 -2.5136,0.4624 -3.2205,0.5288 -0.7073,0.0658 -1.3285,0.1913 -1.3824,0.278 -0.0541,0.0869 -0.3893,0.28 -0.7468,0.429 -0.3575,0.1495 -0.8469,0.4574 -1.0901,0.6845 -0.3447,0.3239 -0.7848,0.4587 -2.0268,0.6201 -0.9336,0.1216 -1.6397,0.3016 -1.7154,0.4374 -0.0789,0.141 -0.6654,0.2793 -1.499,0.3545 -2.5942,0.2334 -3.812,0.687 -4.9323,1.8395 -0.5951,0.6127 -0.7895,0.7001 -1.8122,0.8143 -0.6305,0.0701 -1.1854,0.182 -1.2344,0.2478 -0.0484,0.0658 -0.4687,0.2631 -0.9342,0.4375 -0.466,0.1743 -1.2592,0.6001 -1.7624,0.9452 -3.9357,2.6972 -4.5215,3.0411 -7.3784,4.3332 -0.7417,0.3359 -1.9321,1.0012 -2.644,1.4791 -0.7117,0.4786 -1.6712,1.0879 -2.1312,1.3555 -0.6318,0.3669 -0.8378,0.5903 -0.8378,0.9105 0,0.2333 -0.079,0.4239 -0.1762,0.4239 -0.097,0 -0.1758,0.1464 -0.1758,0.3258 0,0.211 -0.2556,0.4407 -0.7255,0.6522 -0.3984,0.1801 -1.3282,0.7473 -2.066,1.2605 -0.7381,0.514 -1.4033,0.934 -1.4784,0.934 -0.0758,0 -0.1373,-0.2581 -0.1373,-0.5734 0,-0.4928 0.283,-0.8634 2.0178,-2.6439 1.1102,-1.1389 2.1016,-2.0704 2.2031,-2.0704 0.1025,0 0.1863,-0.1843 0.1863,-0.4096 0,-0.6684 0.5381,-2.0444 0.898,-2.297 0.1839,-0.1292 0.4216,-0.4847 0.5283,-0.7907 0.1583,-0.4537 0.3457,-0.6001 1.014,-0.7945 0.6935,-0.2009 0.8293,-0.3132 0.8783,-0.7254 0.0366,-0.311 0.1862,-0.5214 0.4132,-0.5803 0.3384,-0.0888 0.3534,-0.2079 0.295,-2.3803l-0.0609 -2.2865 -0.7049 -0.6131c-1.0156,-0.8826 -1.8483,-1.2612 -3.2096,-1.458 -1.4901,-0.2152 -2.8723,-0.2289 -2.8723,-0.0278 0,0.0831 -0.3513,0.3375 -0.78,0.5653 -0.6454,0.3425 -0.8175,0.5449 -0.9918,1.1668 -0.1161,0.4146 -0.3197,0.8434 -0.453,0.9546 -0.1337,0.1104 -0.2427,0.3462 -0.2427,0.5243 0,0.367 -1.0912,1.0657 -2.5005,1.6014 -0.5028,0.1906 -1.1477,0.5442 -1.4346,0.7851 -0.2865,0.2415 -0.7478,0.4841 -1.0253,0.5392 -0.3847,0.0771 -0.504,0.1998 -0.504,0.5196 0,0.2546 -0.1035,0.4184 -0.2643,0.4184 -0.1451,0 -0.2644,0.1142 -0.2644,0.2533 0,0.1391 -0.2773,0.3531 -0.6169,0.476 -0.4542,0.1645 -0.6167,0.327 -0.6167,0.6164 0,0.2426 -0.1398,0.438 -0.364,0.5089 -0.1997,0.0638 -0.603,0.5051 -0.896,0.9811 -0.2931,0.4767 -0.6451,0.8666 -0.7821,0.8666 -0.1898,0 -0.2495,0.2755 -0.2495,1.1458 0,0.8732 -0.0596,1.1457 -0.2507,1.1457 -0.138,0 -0.3427,0.2774 -0.4544,0.6168 -0.1123,0.3395 -0.2769,0.617 -0.3661,0.617 -0.0902,0 -0.1628,0.1409 -0.1628,0.3127 0,0.1788 -0.4518,0.6418 -1.0581,1.0829 -0.5815,0.4233 -1.0568,0.8913 -1.0568,1.039 0,0.1483 -0.1101,0.3948 -0.2442,0.5481 -0.134,0.1527 -0.4181,0.7541 -0.6304,1.3356 -0.3358,0.9198 -0.4823,1.1035 -1.1222,1.4101 -0.43,0.206 -0.9924,0.7007 -1.3524,1.1897 -0.4189,0.5685 -0.7441,0.8373 -1.0135,0.8373 -0.3736,0 -0.3971,-0.0715 -0.3971,-1.227l0 -1.2264 -0.6605 -0.1762c-0.4369,-0.1124 -0.878,-0.2055 -1.3226,-0.2794 -0.3737,-0.0583 -0.6608,-0.2034 -0.6608,-0.334 0,-0.4535 0.8178,-1.4342 1.4877,-1.7835 0.7738,-0.4034 0.9502,-0.7336 0.9676,-1.8122 0.0117,-0.7074 0.0569,-0.7764 0.6739,-1.0248 1.6926,-0.6826 2.6551,-1.2581 3.5413,-2.1164 0.5288,-0.5121 1.0681,-0.9719 1.1997,-1.0221 0.131,-0.0504 0.2384,-0.2129 0.2384,-0.3614 0,-0.1488 0.0715,-0.2705 0.159,-0.2705 0.0869,0 0.3189,-0.2712 0.5145,-0.6033 0.1962,-0.332 0.6797,-0.7882 1.0742,-1.0135 0.3942,-0.2259 0.7182,-0.489 0.7194,-0.5865 0.0061,-0.4799 0.3942,-1.4977 0.5704,-1.4977 0.5505,0 1.7769,-0.81 2.2356,-1.4772 0.6013,-0.8739 1.0725,-2.3552 1.0725,-3.3713 0,-0.8701 -0.7009,-2.3944 -1.9532,-4.2508l-0.8777 -1.3008 -2.6915 0c-1.4805,0 -2.7668,0.0739 -2.8587,0.1638 -0.0925,0.09 -0.838,0.2546 -1.6566,0.3656 -1.5982,0.2166 -2.2441,0.4736 -3.1268,1.2419 -0.3084,0.2688 -0.844,0.5909 -1.1898,0.7162 -0.3458,0.1247 -0.6286,0.3245 -0.6286,0.4437 0,0.1192 -0.4165,0.3383 -0.9254,0.4873 -0.5091,0.1488 -1.6789,0.7111 -2.6001,1.2493 -1.598,0.9341 -3.9695,2.2065 -4.1129,2.2065 -0.0367,0 -0.1161,-0.4694 -0.1763,-1.0429 -0.175,-1.6757 -0.5138,-2.1759 -2.2982,-3.3893l-1.5845 -1.078 -0.8806 0.2035c-1.1942,0.2756 -2.9331,1.0737 -2.9331,1.3456 0,0.2861 -0.2515,0.3754 -1.4846,0.5294 -0.7925,0.0993 -1.049,0.2084 -1.1836,0.5052 -0.0949,0.2078 -0.4631,0.535 -0.8181,0.7274 -0.7064,0.381 -1.0322,0.8937 -1.1803,1.8563 -0.0918,0.5983 -0.151,0.6449 -1.3053,1.016 -1.5156,0.4884 -3.0183,1.4586 -4.1851,2.7023 -0.6375,0.6789 -1.1295,1.0283 -1.6745,1.1897 -1.0233,0.3023 -1.6707,0.7046 -3.7369,2.3206 -1.7068,1.3344 -3.0931,2.1425 -4.0416,2.3548 -0.4464,0.0999 -0.4847,0.0658 -0.4847,-0.424 0,-0.3557 0.0875,-0.532 0.2638,-0.532 0.1482,0 0.2642,-0.1576 0.2642,-0.3581 0,-0.1968 0.1392,-0.4097 0.3087,-0.4723 0.628,-0.2328 1.6229,-0.9819 1.723,-1.2978 0.0563,-0.1787 0.5783,-0.864 1.1586,-1.5224 0.5804,-0.6585 1.1421,-1.3039 1.2469,-1.4344 0.1055,-0.1303 0.4935,-1.1084 0.8621,-2.173 0.9167,-2.6487 0.9676,-3.5717 0.2541,-4.6237 -0.2429,-0.3569 -0.4408,-0.8044 -0.4408,-0.9936 0,-0.1899 -0.0796,-0.3451 -0.1762,-0.3451 -0.0976,0 -0.1763,-0.1557 -0.1763,-0.3464 0,-0.4579 -0.4154,-0.659 -2.0643,-0.9998 -0.7555,-0.1564 -1.5622,-0.4331 -1.7938,-0.6144 -0.4438,-0.3494 -0.993,-0.4338 -1.1519,-0.1775 -0.052,0.0844 -0.3207,0.1985 -0.5964,0.2539 -0.3263,0.0652 -0.8533,0.5014 -1.5081,1.2468 -0.5536,0.6306 -1.1545,1.1936 -1.3355,1.2506 -0.1808,0.0572 -0.3819,0.3196 -0.4464,0.5828 -0.2259,0.9175 -1.006,2.0043 -1.8004,2.5087 -0.4376,0.2769 -1.3829,0.6424 -2.1003,0.8119 -0.8063,0.1899 -1.3046,0.396 -1.3046,0.5393 0,0.1483 -0.2545,0.2428 -0.7051,0.2619 -0.3878,0.0161 -0.8441,0.0354 -1.0135,0.044 -0.4294,0.0199 -0.3122,-0.478 0.3146,-1.3443 0.5612,-0.7745 1.466,-3.0039 1.6604,-4.0907 0.0745,-0.4158 0.2928,-0.8241 0.5505,-1.0266 0.2345,-0.1849 0.4269,-0.445 0.4269,-0.5783 0,-0.1329 0.4388,-0.5333 0.9745,-0.8888 1.2462,-0.8273 2.0194,-1.7783 2.8263,-3.4782 0.355,-0.7473 0.7101,-1.358 0.7896,-1.358 0.0793,0 0.1699,-0.1687 0.2008,-0.3748 0.041,-0.2731 0.488,-0.5922 1.6605,-1.1841 1.5962,-0.8062 1.6067,-0.8156 2.2579,-2.0805 0.8434,-1.6384 1.819,-2.7369 2.778,-3.1275 0.4193,-0.1713 1.1866,-0.5231 1.7037,-0.7819l0.9401 -0.4717 -0.1216 -1.1458c-0.1316,-1.2375 -0.4412,-2.0114 -0.8716,-2.1766 -0.1488,-0.0572 -0.2704,-0.2235 -0.2704,-0.3692 0,-0.1458 -0.234,-0.3867 -0.5202,-0.5345 -1.2102,-0.6256 -3.5414,-0.015 -4.2961,1.1265 -0.2365,0.3562 -0.725,0.8819 -1.0855,1.1687 -1.345,1.068 -3.8907,4.0826 -4.6132,5.4616 -0.2712,0.5194 -0.6287,0.9794 -0.7932,1.0221 -0.1656,0.0436 -0.3948,0.3947 -0.5121,0.787 -0.1689,0.5642 -0.3513,0.7709 -0.8942,1.0161 -0.6791,0.3065 -0.6821,0.3121 -0.6821,1.3387 0,1.0277 -0.0019,1.0309 -0.5282,1.0309 -0.3514,0 -0.7505,0.1985 -1.1899,0.5927 -0.3642,0.3265 -0.9397,0.7318 -1.2784,0.9018 -1.2693,0.6362 -1.8918,1.4971 -2.0915,2.8928 -0.0894,0.6232 -0.1963,0.8205 -0.4662,0.8615 -0.8827,0.1329 -1.1439,0.2397 -1.1439,0.4643 0,0.1329 -0.1985,0.2917 -0.4407,0.3526 -0.2426,0.0607 -0.4406,0.2134 -0.4406,0.34 0,0.126 -0.236,0.5411 -0.5245,0.9217 -0.288,0.381 -0.5258,0.8305 -0.5282,0.9986 -0.0032,0.1781 -0.2513,0.409 -0.5908,0.5511 -0.3222,0.1348 -1.095,0.7008 -1.7186,1.2581 -0.6231,0.5574 -1.2936,1.0875 -1.4897,1.178 -0.2004,0.0924 -0.6106,0.7286 -0.9371,1.4547 -0.5858,1.3022 -1.4511,2.3914 -1.8998,2.3914 -0.1341,0 -0.2439,0.0628 -0.2439,0.141 0,0.3729 -1.6957,2.4055 -2.4721,2.9636 -0.5243,0.3767 -0.877,0.7646 -0.877,0.9657 0,0.1849 -0.0739,0.3363 -0.1638,0.3363 -0.0899,0 -0.2538,0.4363 -0.3649,0.9696 -0.1248,0.602 -0.2924,0.9695 -0.4413,0.9695 -0.1316,0 -0.2906,0.1582 -0.3519,0.3524 -0.0615,0.1937 -0.1725,0.3526 -0.2464,0.3526 -0.4612,0 -1.8018,1.1662 -2.1375,1.86 -0.2093,0.4307 -0.4545,0.7839 -0.5457,0.7839 -0.0911,0 -0.2165,0.1391 -0.2779,0.3084 -0.2515,0.692 -1.1749,1.7777 -1.823,2.142 -0.5318,0.299 -0.7328,0.5486 -0.8794,1.0928 -0.1041,0.388 -0.3444,0.8603 -0.5331,1.0489 -0.1893,0.1887 -0.3431,0.4165 -0.3431,0.5064 0,0.3241 -0.9212,1.2469 -1.2451,1.2469 -0.3096,0 -0.3251,-0.1166 -0.2308,-1.7185 0.0726,-1.2395 0.1885,-1.8446 0.4165,-2.17 0.1732,-0.2482 0.5685,-0.9618 0.8768,-1.5869 0.3094,-0.6238 0.7641,-1.304 1.0112,-1.5113 0.3842,-0.3226 0.4624,-0.5615 0.5405,-1.6533 0.0739,-1.0278 0.1527,-1.2933 0.4041,-1.3591 0.4021,-0.105 0.9403,-1.3642 1.4243,-3.3348 0.2111,-0.8584 0.4904,-1.6491 0.62,-1.7564 0.1539,-0.1272 0.2365,-0.6008 0.2365,-1.3579 0,-1.1451 0.0107,-1.17 0.7099,-1.7323 0.3912,-0.3139 0.7554,-0.7509 0.8108,-0.9719 0.0557,-0.2204 0.2433,-0.4457 0.4171,-0.5008 0.3387,-0.1075 0.4654,-0.3786 1.0686,-2.2921 0.2143,-0.6784 0.4928,-1.4319 0.6195,-1.6744 0.2035,-0.3897 0.6479,-1.847 1.4212,-4.6654 0.133,-0.4817 0.2409,-1.0441 0.2409,-1.2501 0,-0.2284 0.1725,-0.4524 0.4442,-0.5758 0.5499,-0.251 0.7895,-0.8517 0.7895,-1.9812 0,-0.6492 0.0665,-0.8703 0.2602,-0.8703 0.1425,0 0.3772,-0.2178 0.5206,-0.484 0.1441,-0.2668 0.463,-0.6715 0.7101,-0.8999 0.5108,-0.4729 0.5709,-1.1197 0.2514,-2.7103 -0.187,-0.9292 -0.2508,-1.0161 -1.2327,-1.6598 -0.7547,-0.4945 -1.0365,-0.7875 -1.0377,-1.0761 0,-0.2197 -0.1093,-0.3966 -0.2446,-0.3966 -0.1347,0 -0.3743,-0.198 -0.5332,-0.4407 -0.2755,-0.4208 -0.3661,-0.4406 -2.0467,-0.4406 -1.0551,0 -1.759,0.0708 -1.759,0.1763 0,0.0975 -0.2577,0.1794 -0.5729,0.1819 -0.3153,0.0037 -0.89,0.1595 -1.2779,0.3469 -0.3879,0.1875 -0.8477,0.3433 -1.0222,0.347 -0.1738,0.0031 -0.4513,0.2568 -0.6163,0.5642 -0.1652,0.3071 -0.5188,0.7944 -0.7852,1.0836 -0.2668,0.2892 -0.4847,0.6268 -0.4847,0.7511 0,0.4268 -1.1513,1.4459 -1.8798,1.6645 -0.5804,0.1738 -0.8932,0.4413 -1.53,1.3078 -1.2165,1.657 -3.4116,3.6661 -4.6225,4.2309 -0.5754,0.2687 -1.2201,0.5703 -1.4344,0.6708 -0.476,0.2247 -0.9335,1.1434 -0.9335,1.8744 0,0.4512 -0.1129,0.6001 -0.6726,0.8856 -0.7683,0.3923 -0.9918,0.6293 -1.1793,1.2506 -0.2526,0.8367 -0.8013,1.399 -1.6658,1.7063 -0.8012,0.2842 -0.8765,0.365 -1.1806,1.2649 -0.1966,0.5809 -0.4475,0.9936 -0.6335,1.0427 -0.1696,0.0446 -0.3086,0.1763 -0.3086,0.293 0,0.1159 -0.2873,0.3481 -0.6381,0.5151 -1.1172,0.5332 -1.8135,1.1824 -3.0957,2.8892 -0.6877,0.9148 -1.6162,2.0469 -2.0637,2.5149 -1.0551,1.1052 -1.6057,1.8431 -1.6057,2.1517 0,0.1359 -0.2284,0.4165 -0.5077,0.6225 -0.3042,0.2247 -0.6386,0.7411 -0.8347,1.2865 -0.1807,0.5016 -0.5466,1.0962 -0.8151,1.3215 -0.2673,0.2253 -0.4864,0.4871 -0.4864,0.5815 0,0.2521 -0.9191,1.6136 -1.0893,1.6136 -0.0802,0 -0.1451,0.1969 -0.1451,0.4376 0,0.3219 -0.1187,0.4667 -0.4531,0.5504 -0.3253,0.082 -0.576,0.3717 -0.8838,1.0223 -0.2736,0.579 -0.7393,1.1537 -1.2816,1.5826 -0.7118,0.5647 -0.9031,0.8472 -1.1675,1.7322 -0.2135,0.7111 -0.5391,1.2909 -0.9972,1.7725 -0.3749,0.3936 -0.6809,0.8243 -0.6809,0.9565 0,0.1328 -0.1112,0.2842 -0.2483,0.337 -0.2532,0.0967 -0.9857,1.6172 -0.9857,2.0463 0,0.1303 -0.1588,0.3722 -0.3526,0.5386 -0.2034,0.1738 -0.3523,0.5195 -0.3523,0.8175 0,0.6938 -0.1628,1.0737 -0.46,1.0737 -0.1931,0 -0.2452,0.3735 -0.2452,1.7626 0,1.6597 0.0212,1.7626 0.3612,1.7626 0.5338,0 1.2997,0.445 1.8099,1.0513 0.5301,0.6307 1.1445,0.686 3.0815,0.2787 3.4546,-0.7267 6.1346,-2.421 6.7421,-4.2639 0.1073,-0.3252 0.2688,-0.5914 0.3582,-0.5914 0.0894,0 0.1626,-0.2774 0.1626,-0.6163 0,-0.3395 0.0789,-0.6176 0.1763,-0.6176 0.0966,0 0.1762,-0.149 0.1762,-0.332 0,-0.1825 0.1923,-0.4581 0.427,-0.6125 1.1735,-0.7684 2.6489,-3.2001 3.1174,-5.1364 0.1173,-0.4848 0.359,-1.0708 0.5376,-1.3016 0.1788,-0.2315 0.3245,-0.517 0.3245,-0.6343 0,-0.1179 0.2998,-0.3494 0.6665,-0.5145 0.6529,-0.2943 0.6717,-0.3297 0.88,-1.6572 0.1701,-1.0874 0.3006,-1.428 0.6548,-1.7161 0.3438,-0.2787 0.4425,-0.5226 0.4425,-1.0904 0,-0.9856 0.2148,-1.4853 0.9588,-2.2294 0.5084,-0.5089 0.6277,-0.7603 0.6277,-1.3283 0,-0.3853 0.07,-0.7441 0.1563,-0.7968 0.0856,-0.0534 0.2115,-0.3917 0.2792,-0.7517 0.2049,-1.0931 0.7144,-1.8787 2.382,-3.6743 0.8771,-0.9445 1.6449,-1.9164 1.7055,-2.1592 0.061,-0.2427 0.2656,-0.5958 0.4545,-0.7844 0.2604,-0.2607 0.317,-0.4841 0.2345,-0.9243 -0.0775,-0.4152 -0.0377,-0.6069 0.1416,-0.6757 0.1451,-0.0553 0.3021,-0.475 0.3741,-0.9949 0.1106,-0.8051 0.1912,-0.9347 0.7671,-1.2358 0.8678,-0.453 1.6726,-1.2226 3.102,-2.9655 0.6597,-0.8037 1.2884,-1.4324 1.3976,-1.3971 0.1093,0.0354 0.2987,0.2695 0.4203,0.5196 0.2805,0.5754 -0.0242,2.2511 -0.4092,2.2511 -0.1358,0 -0.2966,0.1992 -0.3581,0.4431 -0.0607,0.2433 -0.2295,0.5089 -0.3741,0.5903 -0.3128,0.1744 -0.5593,1.3183 -0.5746,2.6682 -0.0114,0.9136 -0.0443,0.985 -0.5768,1.2337 -0.8129,0.3811 -1.1115,1.0402 -1.6125,3.5644 -0.4933,2.4869 -0.7542,3.1269 -1.4999,3.6781 -0.3614,0.2674 -0.5394,0.5845 -0.6214,1.1053 -0.2216,1.4101 -0.4606,2.0183 -1.0023,2.5477 -0.4735,0.463 -0.559,0.6907 -0.6411,1.7093 -0.0603,0.7548 -0.1794,1.2078 -0.3333,1.2667 -0.1489,0.0572 -0.2391,0.3736 -0.2391,0.8458 0,0.6287 -0.0801,0.8064 -0.4845,1.0688 -0.7162,0.4649 -0.9889,0.9292 -1.2289,2.0929 -0.2637,1.2753 -1.1867,3.2534 -2.0344,4.3576 -0.5835,0.7596 -0.6387,0.9396 -0.7567,2.4676 -0.1048,1.361 -0.1999,1.7346 -0.543,2.1462 -0.574,0.6876 -0.6411,1.0736 -0.5667,3.2646 0.0578,1.6806 0.1181,1.9848 0.5016,2.5452 0.5245,0.7651 1.1375,1.1252 3.4538,2.0283l1.7651 0.6876 3.9436 -0.8223c2.9301,-0.6114 3.9697,-0.895 4.0454,-1.1035 0.0559,-0.1552 0.5183,-0.612 1.0272,-1.0167 0.509,-0.4041 0.9266,-0.8273 0.9285,-0.9403 0.0025,-0.1129 0.5499,-0.4623 1.217,-0.7756 1.2116,-0.5687 2.8339,-1.9625 2.8339,-2.4343 0,-0.1342 0.1575,-0.3283 0.3507,-0.432 0.1931,-0.1029 0.4691,-0.4171 0.6146,-0.6975 0.145,-0.2806 0.5821,-0.8777 0.9712,-1.3277 0.3891,-0.45 0.7075,-0.9211 0.7075,-1.0481 0,-0.1273 0.2806,-0.4197 0.6225,-0.6506 0.4132,-0.278 0.7794,-0.7646 1.0867,-1.4442 0.453,-1.0005 1.6205,-2.2361 2.1122,-2.2361 0.1277,0 0.2327,-0.1099 0.2327,-0.2439 0,-0.1341 0.1427,-0.2812 0.3172,-0.3265 0.1811,-0.0478 0.4065,-0.376 0.5262,-0.7696 0.1156,-0.3779 0.6114,-1.2022 1.1023,-1.8328 1.4506,-1.8613 2.245,-3.1361 2.5603,-4.1091 0.1624,-0.5027 0.512,-1.1526 0.7757,-1.443 0.2638,-0.291 0.6598,-0.8855 0.8801,-1.322 0.5554,-1.1004 1.3201,-2.0263 2.0418,-2.4719 0.3352,-0.2074 0.6102,-0.4774 0.6102,-0.6001 0,-0.1224 0.1471,-0.3558 0.3271,-0.519 0.3797,-0.3438 0.6056,-0.1632 0.7968,0.6349 0.0634,0.2651 0.3841,0.7511 0.7131,1.08 0.9322,0.9322 1.1923,1.5498 0.9508,2.2567 -0.1104,0.3239 -0.3073,0.6521 -0.4369,0.7298 -0.1297,0.0776 -0.2358,0.298 -0.2358,0.4903 0,0.1919 -0.1391,0.3922 -0.3087,0.4444 -1.3759,0.425 -2.7233,1.0401 -2.8672,1.3089 -0.0955,0.1788 -0.1731,0.5157 -0.1731,0.7504 0,0.3182 -0.2155,0.5591 -0.8541,0.9563 -0.9414,0.5854 -1.3959,1.1216 -2.5086,2.9593 -0.411,0.6789 -1.0819,1.5299 -1.4922,1.8923 -0.4101,0.362 -0.8732,0.9764 -1.029,1.3655 -0.1557,0.3898 -0.4028,0.7081 -0.5486,0.7081 -0.2216,0 -0.2663,0.3383 -0.2663,2.0271 0,1.641 0.0484,2.027 0.2526,2.027 0.1385,0 0.2775,0.1719 0.3086,0.3816 0.044,0.2986 0.3221,0.4712 1.2898,0.797 1.9226,0.6493 3.4284,0.8359 4.0627,0.5051 0.286,-0.1489 0.7285,-0.2718 0.9831,-0.2725 0.8144,-0.0017 1.5646,-0.2146 1.5646,-0.4431 0,-0.1222 0.4165,-0.3569 0.9255,-0.5207 0.5089,-0.1644 1.2425,-0.4841 1.6302,-0.7106 0.9521,-0.5568 2.7323,-2.3417 2.7323,-2.7396 0,-0.2364 0.2482,-0.3934 0.9384,-0.5939 0.5164,-0.1501 1.0835,-0.4333 1.261,-0.6294 0.1777,-0.1961 0.4519,-0.3569 0.6101,-0.3569 0.1576,0 0.4257,-0.2347 0.5952,-0.5219 0.1702,-0.2875 1.0937,-1.0379 2.0532,-1.6684 0.9594,-0.6312 1.968,-1.4306 2.2417,-1.777 0.2836,-0.3606 1.0817,-0.9439 1.8632,-1.3623 1.0228,-0.548 1.3661,-0.8223 1.3667,-1.0943 0.0007,-0.2804 0.3791,-0.5548 1.6689,-1.2115 1.1283,-0.574 2.0841,-1.2332 2.9519,-2.0362 0.7057,-0.653 1.6403,-1.3964 2.0765,-1.651 0.4363,-0.2544 1.5025,-1.0637 2.3697,-1.7979 1.6019,-1.3567 2.9381,-2.1562 3.2659,-1.9531 0.2333,0.1439 0.2369,0.9725 0.0049,0.9725 -0.0968,0 -0.1762,0.1241 -0.1762,0.2762 0,0.152 -0.4563,0.7267 -1.0135,1.2778 -0.5574,0.5505 -1.3543,1.4629 -1.7715,2.0271 -0.5442,0.7374 -0.9999,1.1382 -1.6205,1.4257 -0.7856,0.3643 -0.9322,0.5331 -1.6223,1.876 -0.7064,1.3749 -0.8342,1.5188 -1.8649,2.0997 -1.2067,0.6802 -2.6067,1.9544 -2.7931,2.5421 -0.1457,0.4605 -0.9626,1.3424 -1.2425,1.3424 -0.2084,0 -0.4233,0.249 -1.5795,1.8323 -0.6245,0.8552 -0.6294,0.8744 -0.5101,2.1437 0.1059,1.1327 0.1656,1.292 0.517,1.3809 0.2184,0.0541 0.4902,0.28 0.6044,0.5003 0.3457,0.6646 1.415,1.9152 2.0178,2.3596 1.0172,0.7498 1.647,0.9497 2.9852,0.9471 1.9936,-0.0037 2.017,-0.018 2.2653,-1.4095l0.2147 -1.201 0.7882 -0.2202c1.2115,-0.3396 1.7026,-0.8722 2.438,-2.6472 0.6579,-1.5876 0.6678,-1.6 2.5756,-3.1788 1.3307,-1.1011 2.0599,-1.847 2.3931,-2.4467 0.264,-0.4741 0.6579,-0.9439 0.8758,-1.0439 0.2179,-0.0999 0.7554,-0.5121 1.1936,-0.9168 0.4388,-0.4041 1.1724,-0.9092 1.6305,-1.1227 0.4586,-0.2135 1.389,-0.8446 2.0678,-1.4032 0.6783,-0.5579 1.5274,-1.1848 1.8874,-1.392 0.4251,-0.2459 0.6709,-0.5263 0.7052,-0.805 0.0391,-0.3239 0.2228,-0.4841 0.7609,-0.6628 0.3898,-0.1292 1.1855,-0.6206 1.7683,-1.0918 0.5816,-0.4711 1.4124,-1.0359 1.8458,-1.2555 0.433,-0.2191 0.8545,-0.5134 0.9363,-0.6536 0.0815,-0.1397 0.5164,-0.4122 0.9658,-0.605 0.4499,-0.1925 0.8758,-0.4444 0.9471,-0.5593 0.0943,-0.1526 0.2122,-0.1266 0.4362,0.0974 0.2911,0.2911 0.2882,0.3457 -0.0738,1.09 -0.2799,0.576 -0.8132,1.1177 -2.0188,2.0512 -0.9012,0.6977 -1.972,1.4306 -2.3797,1.6292 -0.4389,0.214 -0.7623,0.5027 -0.7932,0.7081 -0.0383,0.2544 -0.288,0.4064 -0.9334,0.5698 -1.0428,0.2631 -2.0189,1.2355 -2.3503,2.3416 -0.1726,0.5753 -0.378,0.7976 -1.1341,1.2257 -0.5069,0.2879 -1.22,0.8303 -1.5831,1.2054 -0.3589,0.3705 -0.723,0.7361 -1.0925,1.096 -0.7007,0.6729 -0.6671,2.5174 0.0821,4.5004 0.3177,0.8408 0.7113,1.3584 2.089,2.7469 0.9335,0.9414 1.998,1.9344 2.3645,2.2069 0.6548,0.486 0.7021,0.4935 2.3585,0.3848l1.6901 -0.111 1.7228 -1.147c1.8261,-1.2153 4.4347,-2.5615 4.9651,-2.5615 0.4308,0 0.4047,0.3631 -0.0345,0.478 -0.1937,0.0508 -0.3525,0.1992 -0.3525,0.3302 0,0.1302 -0.1646,0.3258 -0.3658,0.433 -0.2016,0.1081 -1.2244,1.0148 -2.274,2.0159 -1.0494,1.0011 -2.0742,1.8732 -2.2784,1.9377 -0.2035,0.0647 -0.3699,0.2551 -0.3699,0.4233 0,0.1682 -0.2656,0.5635 -0.5895,0.8776 -0.5836,0.5653 -4.2571,2.847 -4.5836,2.847 -0.0931,0 -0.4555,0.2973 -0.805,0.6609 -0.35,0.3637 -1.0172,0.9669 -1.4832,1.3405 -0.4655,0.3736 -0.9732,0.9447 -1.1277,1.2687 -0.1726,0.3619 -0.7399,0.9055 -1.4704,1.4094 -0.6547,0.4513 -1.2251,0.9547 -1.2686,1.1198 -0.0428,0.165 -0.3954,0.394 -0.7882,0.5119 -0.4017,0.1198 -0.7466,0.3463 -0.7938,0.5201 -0.0515,0.19 -0.5208,0.4611 -1.2313,0.7118 -0.6319,0.2223 -1.4897,0.6958 -1.9061,1.052 -0.4163,0.357 -1.1997,0.8354 -1.7407,1.0645l-1.9813 0.8365c-0.548,0.2321 -1.2618,0.6654 -1.5863,0.964 -0.3245,0.2985 -1.2246,0.8602 -1.9996,1.2481 -0.7758,0.3879 -1.5475,0.8793 -1.7151,1.0929 -0.3238,0.4135 -0.4159,1.0054 -0.1558,1.0054 0.0863,0 0.2081,0.2719 0.2706,0.6052 0.067,0.3575 0.2371,0.6373 0.4158,0.6845zm58.9913 -56.7208l0 0c-0.1403,-0.3363 -0.2558,-0.7963 -0.2558,-1.0234 0,-0.4506 0.9504,-2.0667 1.2155,-2.0667 0.0905,0 0.5834,-0.5357 1.0953,-1.1898 0.5114,-0.6547 1.3711,-1.675 1.9099,-2.2686 0.5385,-0.5926 1.5582,-1.9854 2.2653,-3.095 1.8879,-2.9631 3.7224,-4.8838 5.435,-5.6895 0.3029,-0.142 1.1029,-0.2817 1.7768,-0.3084 1.0838,-0.0447 1.3096,0.0049 1.947,0.4262 0.396,0.2626 0.9447,0.7716 1.2197,1.1316 0.4474,0.5871 0.4983,0.7919 0.4946,1.9897 -0.0037,1.2246 -0.0701,1.4685 -0.7932,2.9221l-0.789 1.5863 -1.7847 0.8813c-0.9821,0.4854 -2.0525,1.0594 -2.3796,1.2772 -3.3794,2.2485 -4.1099,2.6725 -4.9521,2.8717 -0.6425,0.1526 -1.0644,0.3799 -1.3612,0.7336 -0.7675,0.9155 -2.125,1.7744 -3.3309,2.1091 -0.6419,0.178 -1.2319,0.3239 -1.3122,0.3239 -0.0795,0 -0.26,-0.275 -0.4002,-0.6114zm-57.2328 -2.0568l0 0c-0.1123,-0.7547 0.2905,-2.3213 0.8361,-3.2536 0.4566,-0.7788 2.6128,-3.7355 2.9602,-4.059 1.4805,-1.3777 1.9969,-2.03 2.608,-3.2937 0.3787,-0.7839 0.689,-1.5211 0.689,-1.639 0,-0.3439 1.5621,-0.7945 3.1268,-0.9013 1.6136,-0.1105 1.2884,-0.2662 3.1448,1.5069 1.1303,1.0793 1.6026,3.2881 1.1159,5.2203 -0.1619,0.6418 -0.3023,0.8131 -0.8812,1.0743 -0.3792,0.1706 -0.6895,0.4128 -0.6895,0.5369 0,0.2793 -0.3049,0.3686 -1.7628,0.5164 -0.7409,0.0752 -1.3685,0.2607 -1.7769,0.5245 -0.3469,0.224 -1.2194,0.7039 -1.9389,1.0656 -0.7194,0.3618 -1.7695,0.972 -2.3343,1.3549 -1.4567,0.9887 -3.203,1.7663 -4.1749,1.86 -0.8311,0.0795 -0.8341,0.0784 -0.9224,-0.5132z"/>
 </g>
</svg>
